<svg xmlns="http://www.w3.org/2000/svg" xmlns:xlink="http://www.w3.org/1999/xlink" version="1.1" x="0" y="0" width="512" height="512"><path id="facebook-square-rounded-icon" d="M411.95 50h-312c-27.61 0-50 22.39-50 50v312c0 27.61 22.39 50 50 50h312c27.61 0 50-22.39 50-50V100C461.95 72.39 439.56 50 411.95 50zM323.69 160.66c0 0-22.89 0-31.99 0 -11.29 0-13.64 4.63-13.64 16.31 0 9.72 0 28.23 0 28.23h45.63l-4.39 49.55h-41.24v148.03h-59.11V255.37h-30.74v-50.18h30.74c0 0 0-7.21 0-39.52 0-37.09 19.83-56.45 63.82-56.45 7.21 0 40.93 0 40.93 0V160.66z" fill="#3b5998"/></svg>
